<svg width="277" height="203" viewBox="0 0 277 203" fill="none" xmlns="http://www.w3.org/2000/svg">
<path d="M27.7 203C20.0825 203 13.5638 200.517 8.1438 195.552C2.72383 190.587 0.00923333 184.612 0 177.625V25.375C0 18.3969 2.7146 12.4253 8.1438 7.46025C13.573 2.49521 20.0917 0.00845833 27.7 0H249.3C256.917 0 263.441 2.48675 268.87 7.46025C274.299 12.4337 277.009 18.4053 277 25.375V177.625C277 184.603 274.29 190.579 268.87 195.552C263.45 200.526 256.927 203.008 249.3 203H27.7ZM138.5 114.188L249.3 50.75V25.375L138.5 88.8125L27.7 25.375V50.75L138.5 114.188Z" fill="#EEEEE1"/>
</svg>
