<svg width="321" height="316" viewBox="0 0 321 316" fill="none" xmlns="http://www.w3.org/2000/svg">
<path fill-rule="evenodd" clip-rule="evenodd" d="M160.5 0C71.8237 0 0 72.2713 0 161.5C0 232.964 45.9431 293.324 109.742 314.723C117.767 316.136 120.776 311.291 120.776 307.052C120.776 303.216 120.576 290.498 120.576 276.973C80.25 284.442 69.8175 267.081 66.6075 257.996C64.8019 253.353 56.9775 239.02 50.1562 235.184C44.5387 232.156 36.5137 224.687 49.9556 224.485C62.595 224.283 71.6231 236.194 74.6325 241.039C89.0775 265.466 112.149 258.602 121.378 254.363C122.783 243.865 126.996 236.799 131.61 232.762C95.8988 228.724 58.5825 214.795 58.5825 153.021C58.5825 135.458 64.8019 120.923 75.0338 109.618C73.4287 105.581 67.8112 89.0269 76.6387 66.8206C76.6387 66.8206 90.0806 62.5813 120.776 83.3744C133.616 79.7406 147.259 77.9238 160.901 77.9238C174.544 77.9238 188.186 79.7406 201.026 83.3744C231.722 62.3794 245.164 66.8206 245.164 66.8206C253.991 89.0269 248.374 105.581 246.769 109.618C257.001 120.923 263.22 135.256 263.22 153.021C263.22 214.997 225.703 228.724 189.992 232.762C195.81 237.809 200.826 247.499 200.826 262.639C200.826 284.24 200.625 301.601 200.625 307.052C200.625 311.291 203.634 316.338 211.659 314.723C275.057 293.324 321 232.762 321 161.5C321 72.2713 249.176 0 160.5 0Z" fill="#EEEEE1"/>
</svg>
